<svg version="1.1" xmlns="http://www.w3.org/2000/svg" viewBox="0 0 669 402" width="669" height="402">
  <!-- svg-source:excalidraw -->
  
  <defs>
    <style>
      @font-face {
        font-family: "Virgil";
        src: url("https://excalidraw.com/Virgil.woff2");
      }
      @font-face {
        font-family: "Cascadia";
        src: url("https://excalidraw.com/Cascadia.woff2");
      }
    </style>
  </defs>
  <rect x="0" y="0" width="669" height="402" fill="#ffffff"></rect><g stroke-linecap="round" transform="translate(10 10) rotate(0 324.5 177.5)"><path d="M0.19 -0.74 C241.16 1.73, 482.05 2.14, 648.41 0.7 M-0.06 -0.19 C159.46 -1.06, 318.57 -1.13, 649.14 -0.21 M649.41 0.63 C649.93 95.07, 647.97 190.51, 650.1 355.61 M649.54 0.44 C649.1 133.7, 648.47 267.21, 649.37 354.48 M648.67 355.16 C443.49 351.88, 238.79 352.33, 0.33 355.65 M649.29 354.99 C517.95 357.01, 386.84 357.01, -0.04 355.06 M1.1 354.05 C1.73 263.47, 1.5 171.45, 1.23 1.05 M-0.2 355.62 C0.26 221.52, 1.19 89.43, 0.26 -0.2" stroke="#0b7285" stroke-width="1" fill="none"></path></g><g transform="translate(151 366) rotate(0 145.5 13)"><text x="0" y="18" font-family="Virgil, Segoe UI Emoji" font-size="20px" fill="#000000" text-anchor="start" style="white-space: pre;" direction="ltr">HOST (windows, linux, mac, ...)</text></g><g stroke-linecap="round" transform="translate(67 123) rotate(0 70.5 70.5)"><path d="M1.01 1.92 C52.05 0.93, 100.06 -0.83, 140.38 1.92 M0.18 0.4 C28.39 -0.4, 58.03 -1.18, 140.79 0.86 M140.25 -1.2 C141.99 51.62, 141.41 101.8, 142.62 139.07 M141.14 -0.52 C141.84 39.92, 141.52 79.46, 141.65 140 M139.14 139.56 C95.17 140.04, 51.72 140.59, -0.46 139.63 M140.87 141.69 C91.07 141.38, 42.01 141.11, -0.9 141.27 M1.59 142.15 C-1.17 95.33, -1.18 48.04, -0.78 -1.26 M-0.83 140.34 C0.85 107.33, -0.56 74.93, -0.01 0.52" stroke="#862e9c" stroke-width="1" fill="none"></path></g><g transform="translate(101 141) rotate(0 35.5 26)"><text x="0" y="18" font-family="Virgil, Segoe UI Emoji" font-size="20px" fill="#000000" text-anchor="start" style="white-space: pre;" direction="ltr">VM</text><text x="0" y="44" font-family="Virgil, Segoe UI Emoji" font-size="20px" fill="#000000" text-anchor="start" style="white-space: pre;" direction="ltr">Master</text></g><g stroke-linecap="round" transform="translate(250.5 123.5) rotate(0 70.5 70.5)"><path d="M0.81 1.66 C30.87 0.32, 61.12 2.2, 140.39 1.52 M-0.94 -0.77 C39.85 -0.74, 80.22 0.26, 141.73 -0.54 M140.52 0.88 C143.41 48.89, 141.16 95.8, 140.68 140.38 M141.9 -0.61 C141.25 29.36, 140.89 60.35, 141.24 141.33 M142.55 141.1 C105.19 141.66, 67.55 140.73, -0.22 139.53 M141.82 140.06 C84.2 140.84, 27.88 139.07, -0.65 141.63 M1.09 142.44 C-2.33 108.88, -0.97 80.44, 1.74 1.57 M-0.23 140.39 C0.56 99.77, 1.58 58.73, -0.24 0.88" stroke="#862e9c" stroke-width="1" fill="none"></path></g><g transform="translate(284.5 141.5) rotate(0 32.5 26)"><text x="0" y="18" font-family="Virgil, Segoe UI Emoji" font-size="20px" fill="#000000" text-anchor="start" style="white-space: pre;" direction="ltr">VM</text><text x="0" y="44" font-family="Virgil, Segoe UI Emoji" font-size="20px" fill="#000000" text-anchor="start" style="white-space: pre;" direction="ltr">Worker</text></g><g stroke-linecap="round" transform="translate(429.5 125.5) rotate(0 70.5 70.5)"><path d="M1.85 -0.13 C31.71 0.38, 59.85 0.31, 141.99 0.09 M0.56 -0.82 C34.67 -0.55, 68.81 -0.07, 140.99 -0.97 M142.01 -0.86 C139.78 50.43, 140.05 99.79, 141.08 139.61 M141.36 0.43 C142.68 32.04, 141.83 62, 141.96 141.62 M142.08 141 C88.49 140.85, 39.44 140.12, -1.35 142.9 M140.31 140.34 C87.25 141.67, 31.12 140.9, -0.1 141.95 M0.75 142.12 C-2.86 107.01, 0.84 71.1, 0.76 -1.57 M0.57 140.91 C0.48 98.39, -0.41 56.2, -0.12 0.27" stroke="#862e9c" stroke-width="1" fill="none"></path></g><g transform="translate(463.5 143.5) rotate(0 32.5 26)"><text x="0" y="18" font-family="Virgil, Segoe UI Emoji" font-size="20px" fill="#000000" text-anchor="start" style="white-space: pre;" direction="ltr">VM</text><text x="0" y="44" font-family="Virgil, Segoe UI Emoji" font-size="20px" fill="#000000" text-anchor="start" style="white-space: pre;" direction="ltr">Worker</text></g><g stroke-linecap="round" transform="translate(42 98) rotate(0 283.5 96)"><path d="M0.75 -0.38 C224.6 -2.49, 448.05 -2.58, 567.29 0.02 M567.24 -0.34 C564.96 59.96, 564.48 117.99, 566.87 192.1 M566.32 192.18 C384.11 191.31, 199.73 190.72, -0.49 191.94 M-1.55 191.19 C3.59 121.08, 0.37 52.47, 0.23 -1.56" stroke="#364fc7" stroke-width="1.5" fill="none" stroke-dasharray="8 9"></path></g><g transform="translate(60 38) rotate(0 94.5 13)"><text x="0" y="18" font-family="Virgil, Segoe UI Emoji" font-size="20px" fill="#000000" text-anchor="start" style="white-space: pre;" direction="ltr">VirtualBox/Vagrant</text></g><g transform="translate(523 67) rotate(0 42 13)"><text x="0" y="18" font-family="Virgil, Segoe UI Emoji" font-size="20px" fill="#000000" text-anchor="start" style="white-space: pre;" direction="ltr">SUBNET</text></g><g stroke-linecap="round"><g transform="translate(134 330) rotate(0 -0.3458048650436183 -42.094271343387675)"><path d="M-0.89 0.93 C-0.96 -13.11, -0.8 -70.97, -1.16 -85.12 M0.84 0.38 C0.77 -13.4, -1.29 -69.27, -1.53 -83.61" stroke="#0b7285" stroke-width="1" fill="none"></path></g><g transform="translate(134 330) rotate(0 -0.3458048650436183 -42.094271343387675)"><path d="M11.06 -53.88 C6.97 -63.83, 6.29 -69.41, -0.42 -85.07 M9.83 -56.2 C6.97 -60.75, 4.81 -67.48, -1.87 -82.99" stroke="#0b7285" stroke-width="1" fill="none"></path></g><g transform="translate(134 330) rotate(0 -0.3458048650436183 -42.094271343387675)"><path d="M-9.45 -53.31 C-8.64 -63.25, -4.43 -68.96, -0.42 -85.07 M-10.69 -55.63 C-9.3 -60.24, -7.22 -67.09, -1.87 -82.99" stroke="#0b7285" stroke-width="1" fill="none"></path></g></g><g transform="translate(146 314) rotate(0 16.5 13)"><text x="0" y="18" font-family="Virgil, Segoe UI Emoji" font-size="20px" fill="#0b7285" text-anchor="start" style="white-space: pre;" direction="ltr">ssh</text></g><g stroke-linecap="round"><g transform="translate(285.63312065729883 331.5301384208724) rotate(0 -0.9446921694092794 -42.46171853153038)"><path d="M-0.48 -0.86 C-0.98 -15.34, -2.15 -72.28, -2.36 -86.22 M1.46 1.3 C0.75 -13.13, -2.74 -70.65, -3.35 -85.3" stroke="#0b7285" stroke-width="1" fill="none"></path></g><g transform="translate(285.63312065729883 331.5301384208724) rotate(0 -0.9446921694092794 -42.46171853153038)"><path d="M6.93 -57.83 C2.17 -66.53, 0.86 -76.62, -3.92 -84.55 M8.14 -57.21 C3.88 -66.97, -0.03 -77.1, -4.02 -86.2" stroke="#0b7285" stroke-width="1" fill="none"></path></g><g transform="translate(285.63312065729883 331.5301384208724) rotate(0 -0.9446921694092794 -42.46171853153038)"><path d="M-13.56 -56.76 C-11.14 -65.75, -5.25 -76.22, -3.92 -84.55 M-12.36 -56.14 C-9.8 -66.17, -6.88 -76.67, -4.02 -86.2" stroke="#0b7285" stroke-width="1" fill="none"></path></g></g><g transform="translate(297.63312065729883 315.5301384208724) rotate(0 16.5 13)"><text x="0" y="18" font-family="Virgil, Segoe UI Emoji" font-size="20px" fill="#0b7285" text-anchor="start" style="white-space: pre;" direction="ltr">ssh</text></g><g stroke-linecap="round"><g transform="translate(463.63312065729883 326.5301384208724) rotate(0 -1.0023833935986772 -43.0922841312364)"><path d="M-0.85 -0.37 C-1.4 -14.61, -2.86 -71.55, -2.91 -85.82 M0.9 -1.61 C0.72 -15.68, -0.17 -70.76, -0.53 -84.68" stroke="#0b7285" stroke-width="1" fill="none"></path></g><g transform="translate(463.63312065729883 326.5301384208724) rotate(0 -1.0023833935986772 -43.0922841312364)"><path d="M9.68 -57.76 C5.53 -64.11, 1.72 -74.51, -1.61 -85.64 M10.62 -56.55 C6.45 -64.28, 4.63 -70.07, -1.36 -83.83" stroke="#0b7285" stroke-width="1" fill="none"></path></g><g transform="translate(463.63312065729883 326.5301384208724) rotate(0 -1.0023833935986772 -43.0922841312364)"><path d="M-10.83 -57.35 C-8.18 -63.68, -5.19 -74.23, -1.61 -85.64 M-9.9 -56.14 C-8.98 -63.79, -5.71 -69.68, -1.36 -83.83" stroke="#0b7285" stroke-width="1" fill="none"></path></g></g><g transform="translate(475.63312065729883 310.5301384208724) rotate(0 16.5 13)"><text x="0" y="18" font-family="Virgil, Segoe UI Emoji" font-size="20px" fill="#0b7285" text-anchor="start" style="white-space: pre;" direction="ltr">ssh</text></g></svg>